<?xml version="1.0" encoding="UTF-8" standalone="no"?>
<!DOCTYPE svg PUBLIC "-//W3C//DTD SVG 1.1//EN"
 "http://www.w3.org/Graphics/SVG/1.1/DTD/svg11.dtd">
<!-- Generated by graphviz version 2.38.0 (20140413.2041)
 -->
<!-- Title: models_diagram Pages: 1 -->
<svg width="482pt" height="411pt"
 viewBox="0.00 0.00 481.55 411.00" xmlns="http://www.w3.org/2000/svg" xmlns:xlink="http://www.w3.org/1999/xlink">
<g id="graph0" class="graph" transform="scale(1 1) rotate(0) translate(4 407)">
<title>models_diagram</title>
<polygon fill="none" stroke="none" points="-4,4 -4,-407 477.55,-407 477.55,4 -4,4"/>
<!-- _diagram_info -->
<g id="node1" class="node"><title>_diagram_info</title>
<text text-anchor="start" x="8" y="-374.6" font-family="Times,serif" font-size="13.00">Models diagram</text>
<text text-anchor="start" x="8" y="-361.6" font-family="Times,serif" font-size="13.00">Date: Jul 05 2016 &#45; 21:46</text>
<text text-anchor="start" x="8" y="-348.6" font-family="Times,serif" font-size="13.00">Migration version: 20160706022623</text>
<text text-anchor="start" x="8" y="-335.6" font-family="Times,serif" font-size="13.00">Generated by RailRoady 1.5.1</text>
<text text-anchor="start" x="8" y="-322.6" font-family="Times,serif" font-size="13.00">http://railroady.prestonlee.com</text>
</g>
<!-- Inventario -->
<g id="node2" class="node"><title>Inventario</title>
<path fill="none" stroke="black" d="M237.825,-0.5C237.825,-0.5 461.55,-0.5 461.55,-0.5 467.55,-0.5 473.55,-6.5 473.55,-12.5 473.55,-12.5 473.55,-116.5 473.55,-116.5 473.55,-122.5 467.55,-128.5 461.55,-128.5 461.55,-128.5 237.825,-128.5 237.825,-128.5 231.825,-128.5 225.825,-122.5 225.825,-116.5 225.825,-116.5 225.825,-12.5 225.825,-12.5 225.825,-6.5 231.825,-0.5 237.825,-0.5"/>
<text text-anchor="middle" x="349.688" y="-113.3" font-family="Times,serif" font-size="14.00">Inventario</text>
<polyline fill="none" stroke="black" points="225.825,-106.5 473.55,-106.5 "/>
<text text-anchor="start" x="233.825" y="-91.3" font-family="Times,serif" font-size="14.00">descripcion :character varying</text>
<text text-anchor="start" x="233.825" y="-77.3" font-family="Times,serif" font-size="14.00">numero_de_serie :character varying</text>
<text text-anchor="start" x="233.825" y="-63.3" font-family="Times,serif" font-size="14.00">tamano_rueda :integer</text>
<text text-anchor="start" x="233.825" y="-49.3" font-family="Times,serif" font-size="14.00">id :integer</text>
<text text-anchor="start" x="233.825" y="-35.3" font-family="Times,serif" font-size="14.00">created_at :timestamp without time zone</text>
<text text-anchor="start" x="233.825" y="-21.3" font-family="Times,serif" font-size="14.00">updated_at :timestamp without time zone</text>
<text text-anchor="start" x="233.825" y="-7.3" font-family="Times,serif" font-size="14.00">inventario_id :integer</text>
</g>
<!-- Operacione -->
<g id="node3" class="node"><title>Operacione</title>
<path fill="none" stroke="black" d="M237.825,-165.5C237.825,-165.5 461.55,-165.5 461.55,-165.5 467.55,-165.5 473.55,-171.5 473.55,-177.5 473.55,-177.5 473.55,-253.5 473.55,-253.5 473.55,-259.5 467.55,-265.5 461.55,-265.5 461.55,-265.5 237.825,-265.5 237.825,-265.5 231.825,-265.5 225.825,-259.5 225.825,-253.5 225.825,-253.5 225.825,-177.5 225.825,-177.5 225.825,-171.5 231.825,-165.5 237.825,-165.5"/>
<text text-anchor="middle" x="349.688" y="-250.3" font-family="Times,serif" font-size="14.00">Operacione</text>
<polyline fill="none" stroke="black" points="225.825,-243.5 473.55,-243.5 "/>
<text text-anchor="start" x="233.825" y="-228.3" font-family="Times,serif" font-size="14.00">id :integer</text>
<text text-anchor="start" x="233.825" y="-214.3" font-family="Times,serif" font-size="14.00">operador :character varying</text>
<text text-anchor="start" x="233.825" y="-200.3" font-family="Times,serif" font-size="14.00">created_at :timestamp without time zone</text>
<text text-anchor="start" x="233.825" y="-186.3" font-family="Times,serif" font-size="14.00">updated_at :timestamp without time zone</text>
<text text-anchor="start" x="233.825" y="-172.3" font-family="Times,serif" font-size="14.00">operacione_id :integer</text>
</g>
<!-- Operacione&#45;&gt;Inventario -->
<g id="edge1" class="edge"><title>Operacione&#45;&gt;Inventario</title>
<path fill="none" stroke="#f7869b" d="M349.688,-157.218C349.688,-150.516 349.688,-143.618 349.688,-136.756"/>
<ellipse fill="none" stroke="#f7869b" cx="349.688" cy="-161.299" rx="4" ry="4"/>
<ellipse fill="#f7869b" stroke="#f7869b" cx="349.688" cy="-132.732" rx="4" ry="4"/>
</g>
<!-- Trabajadore -->
<g id="node4" class="node"><title>Trabajadore</title>
<path fill="none" stroke="black" d="M237.825,-302.5C237.825,-302.5 461.55,-302.5 461.55,-302.5 467.55,-302.5 473.55,-308.5 473.55,-314.5 473.55,-314.5 473.55,-390.5 473.55,-390.5 473.55,-396.5 467.55,-402.5 461.55,-402.5 461.55,-402.5 237.825,-402.5 237.825,-402.5 231.825,-402.5 225.825,-396.5 225.825,-390.5 225.825,-390.5 225.825,-314.5 225.825,-314.5 225.825,-308.5 231.825,-302.5 237.825,-302.5"/>
<text text-anchor="middle" x="349.688" y="-387.3" font-family="Times,serif" font-size="14.00">Trabajadore</text>
<polyline fill="none" stroke="black" points="225.825,-380.5 473.55,-380.5 "/>
<text text-anchor="start" x="233.825" y="-365.3" font-family="Times,serif" font-size="14.00">id :integer</text>
<text text-anchor="start" x="233.825" y="-351.3" font-family="Times,serif" font-size="14.00">nombre :character varying</text>
<text text-anchor="start" x="233.825" y="-337.3" font-family="Times,serif" font-size="14.00">mail :character varying</text>
<text text-anchor="start" x="233.825" y="-323.3" font-family="Times,serif" font-size="14.00">created_at :timestamp without time zone</text>
<text text-anchor="start" x="233.825" y="-309.3" font-family="Times,serif" font-size="14.00">updated_at :timestamp without time zone</text>
</g>
<!-- Trabajadore&#45;&gt;Operacione -->
<g id="edge2" class="edge"><title>Trabajadore&#45;&gt;Operacione</title>
<path fill="none" stroke="#0b9102" d="M349.688,-294.176C349.688,-288.13 349.688,-281.973 349.688,-275.904"/>
<ellipse fill="none" stroke="#0b9102" cx="349.688" cy="-298.38" rx="4" ry="4"/>
<polygon fill="#0b9102" stroke="#0b9102" points="349.688,-275.81 354.188,-265.81 349.688,-270.81 349.688,-265.81 349.688,-265.81 349.688,-265.81 349.688,-270.81 345.188,-265.81 349.688,-275.81 349.688,-275.81"/>
</g>
</g>
</svg>
