<?xml version="1.0" encoding="UTF-8" standalone="no"?>
<!DOCTYPE svg PUBLIC "-//W3C//DTD SVG 1.1//EN"
 "http://www.w3.org/Graphics/SVG/1.1/DTD/svg11.dtd">
<!-- Generated by graphviz version 2.38.0 (20140413.2041)
 -->
<!-- Title: models_diagram Pages: 1 -->
<svg width="338pt" height="225pt"
 viewBox="0.00 0.00 338.20 225.00" xmlns="http://www.w3.org/2000/svg" xmlns:xlink="http://www.w3.org/1999/xlink">
<g id="graph0" class="graph" transform="scale(1 1) rotate(0) translate(4 221)">
<title>models_diagram</title>
<polygon fill="none" stroke="none" points="-4,4 -4,-221 334.203,-221 334.203,4 -4,4"/>
<!-- _diagram_info -->
<g id="node1" class="node"><title>_diagram_info</title>
<text text-anchor="start" x="8" y="-202.6" font-family="Times,serif" font-size="13.00">Models diagram</text>
<text text-anchor="start" x="8" y="-189.6" font-family="Times,serif" font-size="13.00">Date: Jul 05 2016 &#45; 21:46</text>
<text text-anchor="start" x="8" y="-176.6" font-family="Times,serif" font-size="13.00">Migration version: 20160706022623</text>
<text text-anchor="start" x="8" y="-163.6" font-family="Times,serif" font-size="13.00">Generated by RailRoady 1.5.1</text>
<text text-anchor="start" x="8" y="-150.6" font-family="Times,serif" font-size="13.00">http://railroady.prestonlee.com</text>
</g>
<!-- Inventario -->
<g id="node2" class="node"><title>Inventario</title>
<ellipse fill="none" stroke="black" cx="277.688" cy="-18" rx="46.3959" ry="18"/>
<text text-anchor="middle" x="277.688" y="-13.8" font-family="Times,serif" font-size="14.00">Inventario</text>
</g>
<!-- Operacione -->
<g id="node3" class="node"><title>Operacione</title>
<ellipse fill="none" stroke="black" cx="277.688" cy="-90" rx="50.7224" ry="18"/>
<text text-anchor="middle" x="277.688" y="-85.8" font-family="Times,serif" font-size="14.00">Operacione</text>
</g>
<!-- Operacione&#45;&gt;Inventario -->
<g id="edge1" class="edge"><title>Operacione&#45;&gt;Inventario</title>
<path fill="none" stroke="#714859" d="M277.688,-63.6398C277.688,-57.348 277.688,-50.6053 277.688,-44.3156"/>
<ellipse fill="none" stroke="#714859" cx="277.688" cy="-67.6966" rx="4" ry="4"/>
<ellipse fill="#714859" stroke="#714859" cx="277.688" cy="-40.1043" rx="4" ry="4"/>
</g>
<!-- Trabajadore -->
<g id="node4" class="node"><title>Trabajadore</title>
<ellipse fill="none" stroke="black" cx="277.688" cy="-180.5" rx="52.5297" ry="18"/>
<text text-anchor="middle" x="277.688" y="-176.3" font-family="Times,serif" font-size="14.00">Trabajadore</text>
</g>
<!-- Trabajadore&#45;&gt;Operacione -->
<g id="edge2" class="edge"><title>Trabajadore&#45;&gt;Operacione</title>
<path fill="none" stroke="#618da2" d="M277.688,-154.189C277.688,-142.971 277.688,-129.752 277.688,-118.311"/>
<ellipse fill="none" stroke="#618da2" cx="277.688" cy="-158.436" rx="4" ry="4"/>
<polygon fill="#618da2" stroke="#618da2" points="277.688,-118.011 282.188,-108.011 277.688,-113.011 277.688,-108.011 277.688,-108.011 277.688,-108.011 277.688,-113.011 273.188,-108.011 277.688,-118.011 277.688,-118.011"/>
</g>
</g>
</svg>
